# xmcd
#
# Track frame offsets: 
#        150
#        28602
#        49758
#        67770
#        86535
#        127140
#        140326
#
# Disc length: 2351 seconds
#
# Revision: 0
# Processed by: cddbd v1.4PL0 Copyright (c) Steve Scherf et al.
# Submitted via: ExactAudioCopy v0.90b4
#
DISCID=59092d07
DTITLE=Otish Rush - Tops
DYEAR=1900
DGENRE=
TTITLE0=Right Place, Wrong Time
TTITLE1=Crosscut Saw
TTITLE2=Tops
TTITLE3=Feel So Bad
TTITLE4=Gambler's Blues
TTITLE5=Keep On Lovin' Me Baby
TTITLE6=I Wonder Why
EXTD=
EXTT0=
EXTT1=
EXTT2=
EXTT3=
EXTT4=
EXTT5=
EXTT6=
PLAYORDER=
